<svg viewBox="-500 270 280 280" xmlns="http://www.w3.org/2000/svg">
  <path d="m -258.81836,273.5332 c -32.75297,-0.53992 -63.33936,11.88775 -91.2168,35.99219 -2.494,2.156 -4.31911,2.66275 -7.41211,1.46875 -16.804,-6.488 -34.22553,-8.33572 -52.01953,-5.76172 -56.83,8.22 -96.44726,60.18614 -89.69726,117.49414 7.95,67.496 77.06636,110.01763 140.81836,86.51563 3.597,-1.326 5.77893,-0.99071 8.71093,1.65429 25.664,23.149 55.95732,34.623 90.44532,35.125 6.38,0.284 12.69512,-0.39834 18.95312,-1.27734 74.695,-10.509 126.88596,-79.82572 115.25195,-154.63672 -8.174,-52.571 -38.0429,-89.54073 -87.8789,-107.67773 -15.73188,-5.72532 -31.06736,-8.65107 -45.95508,-8.89649 z m 1.22656,30.73242 c 48.49143,0.86517 94.39274,35.42718 102.78711,89.44336 9.383,60.37 -34.06498,116.1071 -94.70898,121.4961 -59.848,5.317 -111.9967,-40.17053 -114.59571,-100.14453 -0.17599,-4.063 -1.16689,-5.41332 -5.33789,-5.19532 -6.979,0.364 -14.00028,0.29454 -20.98828,0.0195 -3.583,-0.142 -4.43843,0.95551 -4.27343,4.47851 1.08,23.036 7.11806,44.57591 18.78906,64.50391 0.654,1.118 1.23309,2.28084 1.87109,3.46484 -38.125,12.638 -81.89054,-11.907 -92.93555,-51.875 -11.52499,-41.704 13.70316,-84.271 55.78516,-94.125 41.494,-9.717 82.88763,17.67741 90.89063,60.19141 0.553,2.94 1.13786,5.96592 1.00586,8.91992 -0.165,3.684 0.9177,4.84825 4.7207,4.65625 6.981,-0.35 14.01037,-0.40533 20.98437,0.0137 4.293,0.258 4.83324,-1.47131 4.61524,-5.07031 -1.724,-28.546 -12.62391,-52.86789 -33.62891,-72.33789 -3.787,-3.51 -2.93064,-4.77053 0.56836,-7.39453 19.83281,-14.86844 42.40961,-21.43818 64.45117,-21.04493 z" style="fill:#0a0a0a" />
</svg>
